<svg width="71" height="115" viewBox="0 0 71 115" fill="none" xmlns="http://www.w3.org/2000/svg">
<path fill-rule="evenodd" clip-rule="evenodd" d="M35.2381 70.3174C54.6557 70.2737 70.3613 54.4971 70.3175 35.0795C70.2738 15.6619 54.4972 -0.043668 35.0796 9.12202e-05C15.8184 0.0434981 0.209592 15.5674 0.00219727 34.7697H7.69402C7.75907 19.8327 19.8709 7.72731 34.8309 7.6936C49.8521 7.65975 62.0566 19.8094 62.0905 34.8306C62.1243 49.8518 49.9747 62.0564 34.9534 62.0902C34.8922 62.0904 34.831 62.0903 34.7698 62.0901V70.3154C34.9256 70.3171 35.0818 70.3178 35.2381 70.3174ZM34.7698 56.7488C34.7747 56.7487 34.7796 56.7487 34.7845 56.7487C46.9426 56.7213 56.7764 46.8431 56.749 34.685C56.7216 22.527 46.8433 12.6932 34.6853 12.7206C22.5321 12.748 12.7013 22.6183 12.7208 34.7697H17.5392C17.5386 34.7152 17.5382 34.6606 17.5381 34.606C17.5169 25.2006 25.1242 17.559 34.5295 17.5378C43.9348 17.5166 51.5765 25.1239 51.5977 34.5292C51.6188 43.8799 44.0996 51.4875 34.7698 51.5963V56.7488Z" fill="#ffffff"/>
<rect y="51.7305" width="34.7697" height="5.08825" fill="#ffffff"/>
<rect y="34.7695" width="7.63237" height="79.7159" fill="#ffffff"/>
<rect x="12.7207" y="34.7695" width="4.76599" height="59.3629" fill="#ffffff"/>
</svg>
